<svg width="22" height="22" viewBox="0 0 22 22" fill="none" xmlns="http://www.w3.org/2000/svg">
<g clip-path="url(#clip0_87_1718)">
<path d="M15.962 15.214C15.962 15.214 15.962 18.102 15.962 19.996C15.962 20.064 15.956 20.42 15.666 20.708C15.484 20.89 15.232 21.004 14.954 21.004H1.60798C1.05198 21.004 0.599976 20.552 0.599976 19.996V2.00397C0.599976 1.44797 1.05198 0.995972 1.60798 0.995972H12.582C12.85 0.995972 13.106 1.10197 13.294 1.29197L15.666 3.66397C15.856 3.85397 15.962 4.10997 15.962 4.37597C15.962 5.78797 15.962 6.77197 15.962 8.18397" stroke="white" stroke-width="1.5" stroke-miterlimit="10" stroke-linecap="round" stroke-linejoin="round"/>
<path d="M11.6699 0.995972V5.07797H15.9619" stroke="white" stroke-width="1.5" stroke-miterlimit="10" stroke-linecap="round" stroke-linejoin="round"/>
<path d="M3 8H8" stroke="white" stroke-width="1.5" stroke-miterlimit="10" stroke-linecap="round" stroke-linejoin="round"/>
<path d="M3 11H8" stroke="white" stroke-width="1.5" stroke-miterlimit="10" stroke-linecap="round" stroke-linejoin="round"/>
<path d="M3 14H8" stroke="white" stroke-width="1.5" stroke-miterlimit="10" stroke-linecap="round" stroke-linejoin="round"/>
<path d="M14.486 15.396C16.5096 15.396 18.15 13.7556 18.15 11.732C18.15 9.70842 16.5096 8.06799 14.486 8.06799C12.4625 8.06799 10.822 9.70842 10.822 11.732C10.822 13.7556 12.4625 15.396 14.486 15.396Z" stroke="white" stroke-width="1.5" stroke-miterlimit="10" stroke-linecap="round" stroke-linejoin="round"/>
<path d="M17.58 13.694L21.4 16.556" stroke="white" stroke-width="1.5" stroke-miterlimit="10" stroke-linecap="round" stroke-linejoin="round"/>
</g>
<defs>
<clipPath id="clip0_87_1718">
<rect width="22" height="22" fill="white"/>
</clipPath>
</defs>
</svg>
