<svg width="27" height="20" viewBox="0 0 27 20" fill="none" xmlns="http://www.w3.org/2000/svg">
<path d="M8.24094 16.582C10.8269 16.582 13.4128 16.582 15.9987 16.582V2.1865C15.9987 1.54239 15.4754 1.01904 14.8313 1.01904H2.35154C1.70743 1.01904 1.18408 1.54239 1.18408 2.1865V15.4122C1.18408 15.7342 1.31433 16.0255 1.52508 16.2386C1.85898 16.5725 2.2734 16.5796 2.35154 16.5796H3.5782" stroke="white" stroke-width="1.5" stroke-miterlimit="10" stroke-linecap="round" stroke-linejoin="round"/>
<path d="M15.9963 4.35089H18.6652C20.1476 4.35089 21.5234 5.06131 22.2907 6.22167L24.8648 10.1171V16.582H22.1462" stroke="white" stroke-width="1.5" stroke-miterlimit="10" stroke-linecap="round" stroke-linejoin="round"/>
<path d="M18.947 4.35089V10.1171H24.8648" stroke="white" stroke-width="1.5" stroke-miterlimit="10" stroke-linecap="round" stroke-linejoin="round"/>
<path d="M19.854 18.9785C21.1187 18.9785 22.1439 17.9532 22.1439 16.6885C22.1439 15.4239 21.1187 14.3986 19.854 14.3986C18.5893 14.3986 17.5641 15.4239 17.5641 16.6885C17.5641 17.9532 18.5893 18.9785 19.854 18.9785Z" stroke="white" stroke-width="1.5" stroke-miterlimit="10" stroke-linecap="round" stroke-linejoin="round"/>
<path d="M5.86573 18.9785C7.13042 18.9785 8.15566 17.9532 8.15566 16.6885C8.15566 15.4239 7.13042 14.3986 5.86573 14.3986C4.60104 14.3986 3.57581 15.4239 3.57581 16.6885C3.57581 17.9532 4.60104 18.9785 5.86573 18.9785Z" stroke="white" stroke-width="1.5" stroke-miterlimit="10" stroke-linecap="round" stroke-linejoin="round"/>
<path d="M3.55212 4.73615H11.8404" stroke="white" stroke-miterlimit="10" stroke-linecap="round" stroke-linejoin="round"/>
<path d="M3.55212 7.10422H11.8404" stroke="white" stroke-miterlimit="10" stroke-linecap="round" stroke-linejoin="round"/>
<path d="M1.18408 11.4836H15.9964" stroke="white" stroke-width="1.5" stroke-miterlimit="10" stroke-linecap="round" stroke-linejoin="round"/>
<path d="M23.0437 12.9755H24.8647" stroke="white" stroke-width="1.5" stroke-miterlimit="10" stroke-linecap="round" stroke-linejoin="round"/>
<path d="M15.9963 16.582H17.5687" stroke="white" stroke-width="1.5" stroke-miterlimit="10" stroke-linecap="round" stroke-linejoin="round"/>
</svg>
