<svg width="22" height="22" viewBox="0 0 22 22" fill="none" xmlns="http://www.w3.org/2000/svg">
<path d="M14.674 21.2279H1.71596C1.32796 21.2279 1.01196 20.9119 1.01196 20.5239V4.04585C1.01196 2.23785 2.47796 0.771851 4.28596 0.771851H18.322C14.926 0.771851 15.196 3.76785 15.196 4.33385C15.196 10.4139 15.196 14.6259 15.196 20.7059C15.196 20.7399 15.194 20.9259 14.674 21.2279Z" stroke="white" stroke-width="1.5" stroke-miterlimit="10" stroke-linecap="round" stroke-linejoin="round"/>
<path d="M20.432 11.798H15.752C15.446 11.798 15.198 11.55 15.198 11.244V3.66602C15.198 2.06602 16.494 0.77002 18.094 0.77002C19.694 0.77002 20.99 2.06602 20.99 3.66602V11.244C20.988 11.55 20.738 11.798 20.432 11.798Z" stroke="white" stroke-width="1.5" stroke-miterlimit="10" stroke-linecap="round" stroke-linejoin="round"/>
<path d="M8.25 10.5C10.0449 10.5 11.5 9.04493 11.5 7.25C11.5 5.45507 10.0449 4 8.25 4C6.45508 4 5 5.45507 5 7.25C5 9.04493 6.45508 10.5 8.25 10.5Z" stroke="white" stroke-width="1.5" stroke-miterlimit="10" stroke-linecap="round" stroke-linejoin="round"/>
<path d="M5 15H11" stroke="white" stroke-width="1.5" stroke-miterlimit="10" stroke-linecap="round" stroke-linejoin="round"/>
<path d="M5 18H11" stroke="white" stroke-width="1.5" stroke-miterlimit="10" stroke-linecap="round" stroke-linejoin="round"/>
<path d="M7.84595 6.332L8.95195 7.308L12.5419 4" stroke="white" stroke-width="1.5" stroke-miterlimit="10" stroke-linecap="round" stroke-linejoin="round"/>
</svg>
