<svg width="22" height="22" viewBox="0 0 22 22" fill="none" xmlns="http://www.w3.org/2000/svg">
<path d="M16.586 13.5C16.586 13.5 16.586 18.102 16.586 19.996C16.586 20.064 16.58 20.42 16.29 20.708C16.108 20.89 15.856 21.004 15.578 21.004H2.232C1.676 21.004 1.224 20.552 1.224 19.996V2.00397C1.224 1.44797 1.676 0.995972 2.232 0.995972H13.206C13.474 0.995972 13.73 1.10197 13.918 1.29197L16.29 3.66397C16.48 3.85397 16.586 4.10997 16.586 4.37597C16.586 5.78797 16.586 8.08797 16.586 9.49997" stroke="white" stroke-width="1.5" stroke-miterlimit="10" stroke-linecap="round" stroke-linejoin="round"/>
<path d="M12.2939 0.995972V5.07797H16.5859" stroke="white" stroke-width="1.5" stroke-miterlimit="10" stroke-linecap="round" stroke-linejoin="round"/>
<path d="M4 10H9" stroke="white" stroke-width="1.5" stroke-miterlimit="10" stroke-linecap="round" stroke-linejoin="round"/>
<path d="M4 13H9" stroke="white" stroke-width="1.5" stroke-miterlimit="10" stroke-linecap="round" stroke-linejoin="round"/>
<path d="M4 16H9" stroke="white" stroke-width="1.5" stroke-miterlimit="10" stroke-linecap="round" stroke-linejoin="round"/>
<path d="M12.2939 15.75L12.9479 13.434L19.2739 7.284L20.7759 8.788L14.9299 14.838L12.2939 15.75Z" stroke="white" stroke-width="1.5" stroke-miterlimit="10" stroke-linecap="round" stroke-linejoin="round"/>
</svg>
